<?xml version="1.0" encoding="UTF-8"?>
<svg width="200px" height="44px" viewBox="0 0 200 44" version="1.1" xmlns="http://www.w3.org/2000/svg" xmlns:xlink="http://www.w3.org/1999/xlink">
    <!-- Generator: Sketch 64 (93537) - https://sketch.com -->
    <title>logo</title>
    <desc>Created with Sketch.</desc>
    <g id="Page-1" stroke="none" stroke-width="1" fill="none" fill-rule="evenodd">
        <g id="Desktop-HD" transform="translate(-574.000000, -38.000000)">
            <g id="logo" transform="translate(573.000000, 39.000000)">
                <g transform="translate(0.445714, 0.592593)">
                    <path d="M8.25753558,36.6898159 C8.51558356,36.6898159 8.65535956,36.5715439 8.67686356,36.335 L8.67686356,36.335 L10.6767355,22.6262007 C10.6982395,22.5401847 10.7304955,22.4971767 10.7735034,22.4971767 C10.8165114,22.4971767 10.8487674,22.5401847 10.8702714,22.6262007 L10.8702714,22.6262007 L13.0314233,36.335 C13.0529273,36.5715439 13.1927033,36.6898159 13.4507513,36.6898159 L13.4507513,36.6898159 L16.1925112,36.6898159 C16.4505592,36.6898159 16.5903352,36.5715439 16.6118392,36.335 L16.6118392,36.335 L20.7083509,14.5299451 C20.7513589,14.2503931 20.6330869,14.1106171 20.353535,14.1106171 L20.353535,14.1106171 L17.3537271,14.1106171 C17.0956791,14.1106171 16.9559031,14.2288891 16.9343991,14.4654331 L16.9343991,14.4654331 L14.9022712,27.9161844 C14.8807672,27.9806964 14.8485112,28.0129524 14.8055032,28.0129524 C14.7624952,28.0129524 14.7302392,27.9806964 14.7087352,27.9161844 L14.7087352,27.9161844 L12.5153274,14.4654331 C12.4938234,14.2288891 12.3540474,14.1106171 12.0959994,14.1106171 L12.0959994,14.1106171 L9.51551951,14.1106171 C9.25747153,14.1106171 9.11769553,14.2288891 9.09619154,14.4654331 L9.09619154,14.4654331 L7.06406364,27.9161844 C7.04255964,27.9806964 7.01030364,28.0129524 6.96729564,28.0129524 C6.92428765,28.0129524 6.89203165,27.9806964 6.87052765,27.9161844 L6.87052765,27.9161844 L4.61260776,14.4654331 C4.59110377,14.2288891 4.45132777,14.1106171 4.19327979,14.1106171 L4.19327979,14.1106171 L1.09670394,14.1106171 C0.860159956,14.1106171 0.741887962,14.2073851 0.741887962,14.4009211 L0.741887962,14.4009211 L0.77414396,14.5299451 L5.06419174,36.335 C5.08569574,36.5715439 5.22547173,36.6898159 5.48351972,36.6898159 L5.48351972,36.6898159 L8.25753558,36.6898159 Z M28.9658865,36.9478639 C30.8152304,36.9478639 32.3097583,36.38876 33.4494703,35.270552 C34.5891822,34.1523441 35.1590382,32.6685681 35.1590382,30.8192242 L35.1590382,30.8192242 L35.1590382,19.9812088 C35.1590382,18.1318649 34.5891822,16.648089 33.4494703,15.529881 C32.3097583,14.4116731 30.8152304,13.8525691 28.9658865,13.8525691 C27.1165426,13.8525691 25.6273907,14.4116731 24.4984307,15.529881 C23.3694708,16.648089 22.8049908,18.1318649 22.8049908,19.9812088 L22.8049908,19.9812088 L22.8049908,30.8192242 C22.8049908,32.6685681 23.3694708,34.1523441 24.4984307,35.270552 C25.6273907,36.38876 27.1165426,36.9478639 28.9658865,36.9478639 Z M28.9658865,33.7222641 C28.2347506,33.7222641 27.6487666,33.4695921 27.2079346,32.9642481 C26.7671026,32.4589042 26.5466866,31.7976562 26.5466866,30.9805042 L26.5466866,30.9805042 L26.5466866,19.8199288 C26.5466866,19.0027768 26.7671026,18.3415289 27.2079346,17.8361849 C27.6487666,17.3308409 28.2347506,17.0781689 28.9658865,17.0781689 C29.6970225,17.0781689 30.2883825,17.3308409 30.7399664,17.8361849 C31.1915504,18.3415289 31.4173424,19.0027768 31.4173424,19.8199288 L31.4173424,19.8199288 L31.4173424,30.9805042 C31.4173424,31.7976562 31.1915504,32.4589042 30.7399664,32.9642481 C30.2883825,33.4695921 29.6970225,33.7222641 28.9658865,33.7222641 Z M41.6102379,36.6898159 C41.7177579,36.6898159 41.8091499,36.6521839 41.8844139,36.5769199 C41.9596779,36.501656 41.9973099,36.410264 41.9973099,36.302744 L41.9973099,36.302744 L41.9973099,27.1420404 C41.9973099,27.0345204 42.0510699,26.9807604 42.1585898,26.9807604 L42.1585898,26.9807604 L43.8681578,26.9807604 C43.9326698,26.9807604 43.9864298,27.0237684 44.0294378,27.1097844 L44.0294378,27.1097844 L46.7711976,36.367256 C46.8357096,36.5822959 46.9754856,36.6898159 47.1905256,36.6898159 L47.1905256,36.6898159 L50.2871014,36.6898159 C50.5236454,36.6898159 50.6419174,36.5930479 50.6419174,36.399512 C50.6419174,36.335 50.6311654,36.28124 50.6096614,36.238232 L50.6096614,36.238232 L47.4485736,26.5291765 C47.4270696,26.4216565 47.4593256,26.3571445 47.5453416,26.3356405 C48.4700135,25.8410485 49.1903975,25.1099125 49.7064935,24.1422326 C50.2225894,23.1745526 50.4806374,22.0240887 50.4806374,20.6908408 C50.4806374,19.4006008 50.2387174,18.2555129 49.7548775,17.2555769 C49.2710375,16.255641 48.5936615,15.481497 47.7227496,14.9331451 C46.8518376,14.3847931 45.8465257,14.1106171 44.7068137,14.1106171 L44.7068137,14.1106171 L38.642686,14.1106171 C38.535166,14.1106171 38.443774,14.1482491 38.36851,14.2235131 C38.293246,14.2987771 38.255614,14.3901691 38.255614,14.4976891 L38.255614,14.4976891 L38.255614,36.302744 C38.255614,36.410264 38.293246,36.501656 38.36851,36.5769199 C38.443774,36.6521839 38.535166,36.6898159 38.642686,36.6898159 L38.642686,36.6898159 L41.6102379,36.6898159 Z M44.1262057,24.0777206 L42.1585898,24.0777206 C42.0510699,24.0777206 41.9973099,24.0239606 41.9973099,23.9164406 L41.9973099,23.9164406 L41.9973099,17.4974969 C41.9973099,17.3899769 42.0510699,17.3362169 42.1585898,17.3362169 L42.1585898,17.3362169 L44.1262057,17.3362169 C44.9003497,17.3362169 45.5293417,17.6426489 46.0131816,18.2555129 C46.4970216,18.8683769 46.7389416,19.6909048 46.7389416,20.7230968 C46.7389416,21.7552887 46.4970216,22.5724407 46.0131816,23.1745526 C45.5293417,23.7766646 44.9003497,24.0777206 44.1262057,24.0777206 L44.1262057,24.0777206 Z M56.4802531,36.6898159 C56.5877731,36.6898159 56.6791651,36.6521839 56.7544291,36.5769199 C56.8296931,36.501656 56.8673251,36.410264 56.8673251,36.302744 L56.8673251,36.302744 L56.8673251,29.4322163 C56.8673251,29.3892083 56.8888291,29.3246963 56.9318371,29.2386803 L56.9318371,29.2386803 L58.222077,27.0775284 C58.265085,27.0345204 58.308093,27.0076404 58.351101,26.9968884 C58.394109,26.9861364 58.426365,27.0130164 58.447869,27.0775284 L58.447869,27.0775284 L62.2540768,36.399512 C62.3185888,36.5930479 62.4691168,36.6898159 62.7056608,36.6898159 L62.7056608,36.6898159 L65.8990046,36.6898159 C66.1140446,36.6898159 66.2215646,36.6037999 66.2215646,36.431768 C66.2215646,36.345752 66.2108126,36.28124 66.1893086,36.238232 L66.1893086,36.238232 L60.9638369,23.8196726 C60.9638369,23.7766646 60.9745889,23.7121526 60.9960929,23.6261366 L60.9960929,23.6261366 L65.8344926,14.5622011 C65.8990046,14.4331771 65.9097566,14.3256571 65.8667486,14.2396411 C65.8237406,14.1536251 65.7269726,14.1106171 65.5764446,14.1106171 L65.5764446,14.1106171 L62.3831008,14.1106171 C62.1680608,14.1106171 62.0067808,14.2073851 61.8992608,14.4009211 L61.8992608,14.4009211 L57.0608611,23.4648566 C57.0178531,23.5293686 56.9748451,23.5562486 56.9318371,23.5454966 C56.8888291,23.5347446 56.8673251,23.4863606 56.8673251,23.4003446 L56.8673251,23.4003446 L56.8673251,14.4976891 C56.8673251,14.3901691 56.8296931,14.2987771 56.7544291,14.2235131 C56.6791651,14.1482491 56.5877731,14.1106171 56.4802531,14.1106171 L56.4802531,14.1106171 L53.5127013,14.1106171 C53.4051813,14.1106171 53.3137893,14.1482491 53.2385253,14.2235131 C53.1632613,14.2987771 53.1256293,14.3901691 53.1256293,14.4976891 L53.1256293,14.4976891 L53.1256293,36.302744 C53.1256293,36.410264 53.1632613,36.501656 53.2385253,36.5769199 C53.3137893,36.6521839 53.4051813,36.6898159 53.5127013,36.6898159 L53.5127013,36.6898159 L56.4802531,36.6898159 Z M74.2855642,36.9478639 C76.1349081,36.9478639 77.629436,36.38876 78.769148,35.270552 C79.9088599,34.1523441 80.4787159,32.6685681 80.4787159,30.8192242 L80.4787159,30.8192242 L80.4787159,19.9812088 C80.4787159,18.1318649 79.9088599,16.648089 78.769148,15.529881 C77.629436,14.4116731 76.1349081,13.8525691 74.2855642,13.8525691 C72.4362203,13.8525691 70.9470684,14.4116731 69.8181084,15.529881 C68.6891485,16.648089 68.1246685,18.1318649 68.1246685,19.9812088 L68.1246685,19.9812088 L68.1246685,30.8192242 C68.1246685,32.6685681 68.6891485,34.1523441 69.8181084,35.270552 C70.9470684,36.38876 72.4362203,36.9478639 74.2855642,36.9478639 Z M74.2855642,33.7222641 C73.5544282,33.7222641 72.9684443,33.4695921 72.5276123,32.9642481 C72.0867803,32.4589042 71.8663643,31.7976562 71.8663643,30.9805042 L71.8663643,30.9805042 L71.8663643,19.8199288 C71.8663643,19.0027768 72.0867803,18.3415289 72.5276123,17.8361849 C72.9684443,17.3308409 73.5544282,17.0781689 74.2855642,17.0781689 C75.0167002,17.0781689 75.6080601,17.3308409 76.0596441,17.8361849 C76.5112281,18.3415289 76.7370201,19.0027768 76.7370201,19.8199288 L76.7370201,19.8199288 L76.7370201,30.9805042 C76.7370201,31.7976562 76.5112281,32.4589042 76.0596441,32.9642481 C75.6080601,33.4695921 75.0167002,33.7222641 74.2855642,33.7222641 Z M89.5426514,36.9478639 C91.3704913,36.9478639 92.8435153,36.351128 93.9617232,35.157656 C95.0799311,33.9641841 95.6390351,32.3890162 95.6390351,30.4321523 L95.6390351,30.4321523 L95.6390351,14.4976891 C95.6390351,14.3901691 95.6014031,14.2987771 95.5261391,14.2235131 C95.4508751,14.1482491 95.3594831,14.1106171 95.2519631,14.1106171 L95.2519631,14.1106171 L92.2844113,14.1106171 C92.1768913,14.1106171 92.0854993,14.1482491 92.0102353,14.2235131 C91.9349713,14.2987771 91.8973393,14.3901691 91.8973393,14.4976891 L91.8973393,14.4976891 L91.8973393,30.8192242 C91.8973393,31.6793842 91.6822993,32.3782642 91.2522193,32.9158641 C90.8221394,33.4534641 90.2522834,33.7222641 89.5426514,33.7222641 C88.8330195,33.7222641 88.2631635,33.4534641 87.8330835,32.9158641 C87.4030035,32.3782642 87.1879635,31.6793842 87.1879635,30.8192242 L87.1879635,30.8192242 L87.1879635,14.4976891 C87.1879635,14.3901691 87.1503315,14.2987771 87.0750676,14.2235131 C86.9998036,14.1482491 86.9084116,14.1106171 86.8008916,14.1106171 L86.8008916,14.1106171 L83.8333397,14.1106171 C83.7258197,14.1106171 83.6344277,14.1482491 83.5591637,14.2235131 C83.4838997,14.2987771 83.4462677,14.3901691 83.4462677,14.4976891 L83.4462677,14.4976891 L83.4462677,30.4321523 C83.4462677,32.3890162 83.9999957,33.9641841 85.1074517,35.157656 C86.2149076,36.351128 87.6933075,36.9478639 89.5426514,36.9478639 Z M105.928699,36.6898159 C106.036219,36.6898159 106.127611,36.6521839 106.202875,36.5769199 C106.278139,36.501656 106.315771,36.410264 106.315771,36.302744 L106.315771,36.302744 L106.315771,17.4974969 C106.315771,17.3899769 106.369531,17.3362169 106.477051,17.3362169 L106.477051,17.3362169 L110.573562,17.3362169 C110.681082,17.3362169 110.772474,17.2985849 110.847738,17.2233209 C110.923002,17.1480569 110.960634,17.0566649 110.960634,16.949145 L110.960634,16.949145 L110.960634,14.4976891 C110.960634,14.3901691 110.923002,14.2987771 110.847738,14.2235131 C110.772474,14.1482491 110.681082,14.1106171 110.573562,14.1106171 L110.573562,14.1106171 L98.542075,14.1106171 C98.434555,14.1106171 98.343163,14.1482491 98.267899,14.2235131 C98.192635,14.2987771 98.155003,14.3901691 98.155003,14.4976891 L98.155003,14.4976891 L98.155003,16.949145 C98.155003,17.0566649 98.192635,17.1480569 98.267899,17.2233209 C98.343163,17.2985849 98.434555,17.3362169 98.542075,17.3362169 L98.542075,17.3362169 L102.412795,17.3362169 C102.520315,17.3362169 102.574075,17.3899769 102.574075,17.4974969 L102.574075,17.4974969 L102.574075,36.302744 C102.574075,36.410264 102.611707,36.501656 102.686971,36.5769199 C102.762235,36.6521839 102.853627,36.6898159 102.961147,36.6898159 L102.961147,36.6898159 L105.928699,36.6898159 Z" id="WORKOUT" fill="#1044FF" fill-rule="nonzero"></path>
                    <g id="Group-2" transform="translate(114.422857, 0.000000)" stroke="#1044FF" stroke-linecap="round">
                        <path d="M15.7920011,-6.75015599e-14 C19.3255959,-6.75015599e-14 22.7455969,0.660149944 26.0520043,1.98044983 C28.0348997,2.77225271 29.056745,4.97260058 28.3823679,6.998444 L25.9109588,14.4253721 C29.3782295,17.2325192 31.5840022,21.4539408 31.5840022,26.1745976 C31.5840022,32.3878242 27.7628858,37.7362127 22.2736459,40.1334285 L9.31035623,40.1334285 C3.8211164,37.7362127 3.55271368e-15,32.3878242 3.55271368e-15,26.1745976 C3.55271368e-15,21.9074803 1.80229153,18.048278 4.70945399,15.2728184 L2.01574659,7.18123663 C1.32539636,5.10739752 2.41314646,2.86113673 4.46821498,2.11676755 C8.36422289,0.705589182 12.1388183,-6.75015599e-14 15.7920011,-6.75015599e-14 Z M15.404251,5.01666701 C13.3651619,5.01666701 11.2619963,5.3061642 9.09475422,5.88515859 C8.96771677,5.91909756 8.84430448,5.9653839 8.72628084,6.02335619 C7.72691515,6.5142368 7.31470654,7.72232013 7.80560366,8.72167772 L7.80560366,8.72167772 L9.2712615,11.7055564 C11.3540902,10.8561736 13.4273348,10.4314822 15.4909953,10.4314822 C17.5546558,10.4314822 19.5700709,10.8561736 21.5372406,11.7055564 L21.5372406,11.7055564 L22.8426115,8.61243837 C22.8744998,8.53687818 22.9017474,8.4594425 22.9242026,8.38056305 C23.2290491,7.30971299 22.6080805,6.19449059 21.5372353,5.88962711 C19.4929072,5.30765371 17.4485791,5.01666701 15.404251,5.01666701 Z" id="Combined-Shape" stroke-width="2.80000002"></path>
                        <g id="Group" transform="translate(15.673715, 24.738890) scale(-1, 1) translate(-15.673715, -24.738890) translate(9.673715, 21.738890)" stroke-width="3.36000003">
                            <line x1="0.423000029" y1="0.418055584" x2="6.26040043" y2="5.68555603" id="Line-3"></line>
                            <line x1="10.5750007" y1="2.92638909" x2="6.26040043" y2="5.68555603" id="Line-3"></line>
                        </g>
                    </g>
                    <path d="M156.939721,36.6898159 C157.047241,36.6898159 157.138633,36.6521839 157.213897,36.5769199 C157.289161,36.501656 157.326793,36.410264 157.326793,36.302744 L157.326793,36.302744 L157.326793,17.4974969 C157.326793,17.3899769 157.380553,17.3362169 157.488073,17.3362169 L157.488073,17.3362169 L161.584584,17.3362169 C161.692104,17.3362169 161.783496,17.2985849 161.85876,17.2233209 C161.934024,17.1480569 161.971656,17.0566649 161.971656,16.949145 L161.971656,16.949145 L161.971656,14.4976891 C161.971656,14.3901691 161.934024,14.2987771 161.85876,14.2235131 C161.783496,14.1482491 161.692104,14.1106171 161.584584,14.1106171 L161.584584,14.1106171 L149.553097,14.1106171 C149.445577,14.1106171 149.354185,14.1482491 149.278921,14.2235131 C149.203657,14.2987771 149.166025,14.3901691 149.166025,14.4976891 L149.166025,14.4976891 L149.166025,16.949145 C149.166025,17.0566649 149.203657,17.1480569 149.278921,17.2233209 C149.354185,17.2985849 149.445577,17.3362169 149.553097,17.3362169 L149.553097,17.3362169 L153.423817,17.3362169 C153.531337,17.3362169 153.585097,17.3899769 153.585097,17.4974969 L153.585097,17.4974969 L153.585097,36.302744 C153.585097,36.410264 153.622729,36.501656 153.697993,36.5769199 C153.773257,36.6521839 153.864649,36.6898159 153.972169,36.6898159 L153.972169,36.6898159 L156.939721,36.6898159 Z M175.454664,36.6898159 C175.562184,36.6898159 175.653576,36.6521839 175.72884,36.5769199 C175.804104,36.501656 175.841736,36.410264 175.841736,36.302744 L175.841736,36.302744 L175.841736,33.8512881 C175.841736,33.7437681 175.804104,33.6523761 175.72884,33.5771121 C175.653576,33.5018481 175.562184,33.4642161 175.454664,33.4642161 L175.454664,33.4642161 L168.487368,33.4642161 C168.379848,33.4642161 168.326088,33.4104561 168.326088,33.3029361 L168.326088,33.3029361 L168.326088,27.1742964 C168.326088,27.0667764 168.379848,27.0130164 168.487368,27.0130164 L168.487368,27.0130164 L172.616136,27.0130164 C172.723656,27.0130164 172.815048,26.9753844 172.890312,26.9001204 C172.965576,26.8248564 173.003208,26.7334645 173.003208,26.6259445 L173.003208,26.6259445 L173.003208,24.1422326 C173.003208,24.0347126 172.965576,23.9433206 172.890312,23.8680566 C172.815048,23.7927926 172.723656,23.7551606 172.616136,23.7551606 L172.616136,23.7551606 L168.487368,23.7551606 C168.379848,23.7551606 168.326088,23.7014006 168.326088,23.5938806 L168.326088,23.5938806 L168.326088,17.4974969 C168.326088,17.3899769 168.379848,17.3362169 168.487368,17.3362169 L168.487368,17.3362169 L175.454664,17.3362169 C175.562184,17.3362169 175.653576,17.2985849 175.72884,17.2233209 C175.804104,17.1480569 175.841736,17.0566649 175.841736,16.949145 L175.841736,16.949145 L175.841736,14.4976891 C175.841736,14.3901691 175.804104,14.2987771 175.72884,14.2235131 C175.653576,14.1482491 175.562184,14.1106171 175.454664,14.1106171 L175.454664,14.1106171 L164.971464,14.1106171 C164.863944,14.1106171 164.772552,14.1482491 164.697288,14.2235131 C164.622024,14.2987771 164.584392,14.3901691 164.584392,14.4976891 L164.584392,14.4976891 L164.584392,36.302744 C164.584392,36.410264 164.622024,36.501656 164.697288,36.5769199 C164.772552,36.6521839 164.863944,36.6898159 164.971464,36.6898159 L164.971464,36.6898159 L175.454664,36.6898159 Z M181.970375,36.6898159 C182.077895,36.6898159 182.169287,36.6521839 182.244551,36.5769199 C182.319815,36.501656 182.357447,36.410264 182.357447,36.302744 L182.357447,36.302744 L182.357447,14.4976891 C182.357447,14.3901691 182.319815,14.2987771 182.244551,14.2235131 C182.169287,14.1482491 182.077895,14.1106171 181.970375,14.1106171 L181.970375,14.1106171 L179.002824,14.1106171 C178.895304,14.1106171 178.803912,14.1482491 178.728648,14.2235131 C178.653384,14.2987771 178.615752,14.3901691 178.615752,14.4976891 L178.615752,14.4976891 L178.615752,36.302744 C178.615752,36.410264 178.653384,36.501656 178.728648,36.5769199 C178.803912,36.6521839 178.895304,36.6898159 179.002824,36.6898159 L179.002824,36.6898159 L181.970375,36.6898159 Z M189.098951,36.6898159 C189.206471,36.6898159 189.297863,36.6521839 189.373127,36.5769199 C189.448391,36.501656 189.486023,36.410264 189.486023,36.302744 L189.486023,36.302744 L189.486023,21.0779127 C189.486023,20.9918967 189.507527,20.9488887 189.550535,20.9488887 C189.593543,20.9488887 189.636551,20.9811447 189.679559,21.0456567 L189.679559,21.0456567 L192.485831,26.1421045 C192.593351,26.3141365 192.690119,26.4001525 192.776135,26.4001525 C192.862151,26.4001525 192.958919,26.3141365 193.066439,26.1421045 L193.066439,26.1421045 L195.872711,21.0456567 C195.915719,20.9811447 195.958727,20.9488887 196.001735,20.9488887 C196.044743,20.9488887 196.066247,20.9918967 196.066247,21.0779127 L196.066247,21.0779127 L196.066247,36.302744 C196.066247,36.410264 196.103879,36.501656 196.179143,36.5769199 C196.254407,36.6521839 196.345799,36.6898159 196.453319,36.6898159 L196.453319,36.6898159 L199.420871,36.6898159 C199.528391,36.6898159 199.619783,36.6521839 199.695047,36.5769199 C199.770311,36.501656 199.807943,36.410264 199.807943,36.302744 L199.807943,36.302744 L199.807943,14.4976891 C199.807943,14.3901691 199.770311,14.2987771 199.695047,14.2235131 C199.619783,14.1482491 199.528391,14.1106171 199.420871,14.1106171 L199.420871,14.1106171 L196.453319,14.1106171 C196.238279,14.1106171 196.076999,14.1966331 195.969479,14.3686651 L195.969479,14.3686651 L192.905159,19.8844408 C192.840647,19.9704568 192.776135,19.9704568 192.711623,19.8844408 L192.711623,19.8844408 L189.582791,14.3686651 C189.475271,14.1966331 189.313991,14.1106171 189.098951,14.1106171 L189.098951,14.1106171 L186.131399,14.1106171 C186.023879,14.1106171 185.932487,14.1482491 185.857223,14.2235131 C185.781959,14.2987771 185.744327,14.3901691 185.744327,14.4976891 L185.744327,14.4976891 L185.744327,36.302744 C185.744327,36.410264 185.781959,36.501656 185.857223,36.5769199 C185.932487,36.6521839 186.023879,36.6898159 186.131399,36.6898159 L186.131399,36.6898159 L189.098951,36.6898159 Z" id="TEIM" fill="#1044FF" fill-rule="nonzero"></path>
                </g>
            </g>
        </g>
    </g>
</svg>