<?xml version="1.0" encoding="UTF-8"?>
<svg width="269px" height="54px" viewBox="0 0 269 54" version="1.1" xmlns="http://www.w3.org/2000/svg" xmlns:xlink="http://www.w3.org/1999/xlink">
    <!-- Generator: Sketch 64 (93537) - https://sketch.com -->
    <title>Logo</title>
    <desc>Created with Sketch.</desc>
    <g id="Logo" stroke="none" stroke-width="1" fill="none" fill-rule="evenodd" opacity="0.300000012">
        <g transform="translate(0.000000, 2.000000)">
            <text id="WORKOUT" font-family="BarlowCondensed-SemiBold, Barlow Condensed" font-size="40.3200003" font-style="condensed" font-weight="500" fill="#1044FF">
                <tspan x="0" y="46">WORKOUT		</tspan>
            </text>
            <g id="Group-2" transform="translate(141.000000, 0.000000)" stroke="#1044FF" stroke-linecap="round">
                <path d="M19.6000013,-7.10542736e-14 C23.9894881,-7.10542736e-14 28.2377441,0.830470133 32.3447693,2.4914104 C34.804794,3.48627959 36.0720396,6.21820628 35.2427501,8.73887391 L32.1588658,18.1154806 C36.4622883,21.6407348 39.2000027,26.9421005 39.2000027,32.8704249 C39.2000027,40.672739 34.4578987,47.3890728 27.6454932,50.3997231 L11.5545095,50.3997231 C4.74210399,47.3890728 1.77635684e-14,40.672739 1.77635684e-14,32.8704249 C1.77635684e-14,27.5115751 2.2370072,22.6650181 5.84535867,19.1795367 L2.48531871,8.96816148 C1.63602559,6.38670125 2.98630851,3.59673311 5.53776624,2.66115885 C10.3760312,0.887052948 15.0634429,-7.10542736e-14 19.6000013,-7.10542736e-14 Z M19.1187513,6.30000043 C16.5865768,6.30000043 13.9747874,6.66395452 11.283383,7.39186271 C11.1309868,7.43307927 10.9828008,7.48852535 10.8407794,7.55746973 C9.58874554,8.16527036 9.0664913,9.67296414 9.67430436,10.924992 L9.67430436,10.924992 L11.5068848,14.700001 C14.0919559,13.6333343 16.6651318,13.1000009 19.2264125,13.1000009 C21.7876933,13.1000009 24.289095,13.6333343 26.7306178,14.700001 L26.7306178,14.700001 L28.3619558,10.788773 C28.3990177,10.699915 28.4309569,10.609006 28.4576163,10.5164932 C28.8429983,9.17915059 28.0712817,7.78260636 26.7339363,7.39723403 C24.1955415,6.66574496 21.6571465,6.30000043 19.1187513,6.30000043 Z" id="Combined-Shape" stroke-width="3.50000024"></path>
                <g id="Group" transform="translate(19.400001, 31.300002) scale(-1, 1) translate(-19.400001, -31.300002) translate(11.900001, 27.300002)" stroke-width="4.20000029">
                    <line x1="0.525000036" y1="0.525000036" x2="7.77000054" y2="7.14000059" id="Line-3"></line>
                    <line x1="13.1250009" y1="3.67500025" x2="7.77000054" y2="7.14000059" id="Line-3"></line>
                </g>
            </g>
            <text id="TIMER" font-family="BarlowCondensed-SemiBold, Barlow Condensed" font-size="40.3200003" font-style="condensed" font-weight="500" fill="#1044FF">
                <tspan x="183" y="46">TIMER</tspan>
            </text>
        </g>
    </g>
</svg>